<svg width="349" height="267" viewBox="0 0 349 267" fill="none" xmlns="http://www.w3.org/2000/svg">
<path d="M304.954 57.4603H241.96C238.752 57.4603 236.152 60.0662 236.152 63.2807V153.563C236.152 156.777 238.752 159.383 241.96 159.383H304.954C308.161 159.383 310.762 156.777 310.762 153.563V63.2807C310.762 60.0662 308.161 57.4603 304.954 57.4603Z" stroke="#CCDDE2" stroke-width="1.449" stroke-miterlimit="10"/>
<path d="M302.232 67.9607H245.439C243.835 67.9607 242.535 69.2636 242.535 70.8709V82.9768C242.535 84.5841 243.835 85.887 245.439 85.887H302.232C303.835 85.887 305.135 84.5841 305.135 82.9768V70.8709C305.135 69.2636 303.835 67.9607 302.232 67.9607Z" stroke="#CCDDE2" stroke-width="1.449" stroke-miterlimit="10"/>
<path d="M273.455 75.5116C274.477 75.5116 275.305 74.6816 275.305 73.6578C275.305 72.6339 274.477 71.804 273.455 71.804C272.434 71.804 271.605 72.6339 271.605 73.6578C271.605 74.6816 272.434 75.5116 273.455 75.5116Z" fill="#D7E8F0"/>
<path d="M268.285 82.0466C268.285 80.6727 268.83 79.3551 269.799 78.3836C270.768 77.4121 272.083 76.8663 273.454 76.8663C274.825 76.8663 276.139 77.4121 277.109 78.3836C278.078 79.3551 278.623 80.6727 278.623 82.0466H268.285Z" fill="#D7E8F0"/>
<path d="M273.832 105.1C271.861 105.101 269.935 105.687 268.297 106.785C266.659 107.883 265.382 109.443 264.629 111.267C263.875 113.092 263.678 115.1 264.063 117.037C264.448 118.974 265.397 120.753 266.791 122.149C268.184 123.545 269.96 124.496 271.892 124.881C273.825 125.266 275.828 125.068 277.649 124.312C279.469 123.556 281.025 122.276 282.12 120.634C283.215 118.992 283.799 117.062 283.799 115.087C283.799 113.775 283.541 112.476 283.04 111.264C282.539 110.052 281.805 108.951 280.879 108.024C279.954 107.097 278.855 106.361 277.646 105.859C276.436 105.358 275.14 105.1 273.832 105.1ZM273.832 122.663C273.457 122.645 273.105 122.483 272.846 122.211C272.588 121.939 272.444 121.578 272.444 121.203C272.444 120.827 272.588 120.466 272.846 120.194C273.105 119.922 273.457 119.761 273.832 119.742C274.206 119.761 274.558 119.922 274.817 120.194C275.075 120.466 275.219 120.827 275.219 121.203C275.219 121.578 275.075 121.939 274.817 122.211C274.558 122.483 274.206 122.645 273.832 122.663ZM275.671 111.431C275.364 113.597 275.105 115.87 274.46 117.976C274.306 118.483 273.357 118.483 273.203 117.976C272.749 116.393 272.399 114.781 272.156 113.152C271.957 111.967 271.266 110.046 271.926 108.895C272.509 107.846 274.149 107.741 275.102 108.28C276.271 108.941 275.81 110.354 275.671 111.431Z" fill="#D7E8F0"/>
<path d="M164.807 77.694C161.313 76.65 157.589 76.6677 154.106 77.7449C150.623 78.8221 147.536 80.9104 145.237 83.7456C142.938 86.5809 141.53 90.0358 141.19 93.6734C140.85 97.3111 141.594 100.968 143.328 104.182C145.062 107.396 147.707 110.022 150.931 111.729C154.154 113.435 157.81 114.146 161.436 113.77C165.062 113.394 168.495 111.949 171.302 109.617C174.108 107.286 176.162 104.173 177.203 100.671C177.895 98.3467 178.123 95.9084 177.874 93.4956C177.625 91.0829 176.905 88.7428 175.754 86.6091C174.603 84.4754 173.043 82.5899 171.165 81.0602C169.287 79.5306 167.126 78.3867 164.807 77.694ZM155.548 108.825C154.882 108.604 154.328 108.133 154.004 107.51C153.679 106.887 153.61 106.162 153.81 105.489C154.011 104.816 154.465 104.247 155.077 103.904C155.688 103.561 156.409 103.47 157.087 103.651C157.435 103.744 157.761 103.907 158.046 104.128C158.33 104.35 158.568 104.627 158.744 104.942C158.92 105.257 159.031 105.604 159.07 105.963C159.11 106.323 159.077 106.686 158.974 107.032C158.871 107.378 158.7 107.7 158.471 107.979C158.241 108.257 157.959 108.487 157.639 108.654C157.32 108.821 156.97 108.923 156.611 108.952C156.251 108.981 155.89 108.938 155.548 108.825ZM164.726 89.8874C163.041 93.5636 161.38 97.4567 159.142 100.846C158.605 101.665 156.919 101.161 156.916 100.182C156.944 97.1378 157.178 94.0995 157.614 91.0872C157.886 88.887 157.673 85.1164 159.45 83.4235C161.027 81.9089 163.987 82.5595 165.4 84.0146C167.1 85.7915 165.543 88.0546 164.726 89.8874Z" fill="#047857"/>
<path d="M113.331 118.594C112.053 119.898 111.189 121.552 110.849 123.347C110.509 125.143 110.708 126.999 111.42 128.682C112.133 130.364 113.327 131.797 114.852 132.799C116.377 133.801 118.164 134.328 119.987 134.312C121.81 134.296 123.588 133.739 125.096 132.711C126.603 131.683 127.773 130.23 128.456 128.535C129.14 126.841 129.307 124.982 128.936 123.192C128.565 121.403 127.673 119.764 126.373 118.482C124.629 116.764 122.275 115.811 119.829 115.832C117.383 115.853 115.046 116.846 113.331 118.594ZM124.897 129.987C124.773 130.113 124.625 130.214 124.463 130.283C124.3 130.353 124.125 130.389 123.948 130.391C123.771 130.393 123.595 130.359 123.431 130.293C123.267 130.226 123.118 130.128 122.992 130.004C122.865 129.88 122.765 129.732 122.695 129.569C122.626 129.405 122.59 129.23 122.588 129.053C122.587 128.875 122.62 128.7 122.686 128.535C122.752 128.371 122.85 128.221 122.974 128.094C123.224 127.839 123.566 127.693 123.923 127.69C124.281 127.687 124.625 127.826 124.88 128.077C125.135 128.328 125.28 128.67 125.283 129.028C125.286 129.386 125.147 129.731 124.897 129.987ZM118.695 121.49C119.92 123.099 121.25 124.747 122.217 126.538C122.451 126.968 121.836 127.587 121.404 127.37C120.071 126.641 118.788 125.823 117.565 124.922C116.654 124.289 114.944 123.498 114.612 122.312C114.312 121.263 115.31 120.095 116.266 119.818C117.442 119.476 118.074 120.696 118.695 121.49Z" fill="#047857"/>
<path d="M248.797 93.8895H297.472" stroke="#CCDDE2" stroke-width="1.449" stroke-miterlimit="10"/>
<path d="M248.797 98.6921H297.472" stroke="#CCDDE2" stroke-width="1.449" stroke-miterlimit="10"/>
<path d="M248.797 129.612H297.472" stroke="#CCDDE2" stroke-width="1.449" stroke-miterlimit="10"/>
<path d="M260.105 134.157H286.169" stroke="#CCDDE2" stroke-width="1.449" stroke-miterlimit="10"/>
<path d="M310.766 123.309C315.058 128.717 319.142 135.419 322.834 143.677C345.317 193.997 317.215 219.534 317.215 219.534" stroke="#9F9F9F" stroke-width="1.449" stroke-miterlimit="10"/>
<path d="M75.9423 163.209C75.9423 163.209 42.5814 125.282 84.1822 106.502C125.783 87.7223 134.019 85.1129 131.018 65.5776C128.017 46.0423 151.609 26.1502 188.711 39.295C225.813 52.4398 226.557 77.2113 223.925 96.3619C222.432 107.279 228.612 109.902 236.14 109.353" stroke="#9F9F9F" stroke-width="1.449" stroke-miterlimit="10"/>
<path d="M308.413 235.901C308.328 237.995 307.787 240.045 306.828 241.907C306.79 242 306.746 242.09 306.696 242.176C305.014 245.205 302.66 247.807 299.817 249.781L299.716 249.85C297.149 251.571 294.262 252.755 291.228 253.331H323.524C323.524 253.331 319.204 191.577 279.495 161.531C241.066 132.457 205.088 146.469 202.805 147.406C203.512 149.407 203.829 151.526 203.737 153.647C203.737 153.647 206.627 155.154 207.109 160.551C207.59 165.948 208.595 180.954 198.931 183.78C198.931 183.78 190.255 183.567 187.962 180.23C185.669 176.893 185.118 177.572 184.218 178.418C183.52 179.058 179.307 181.346 177.363 182.395C177.609 182.407 177.853 182.441 178.093 182.496C178.093 182.496 179.206 191.913 192.827 206.67C193.289 207.157 193.725 207.669 194.133 208.202C196.19 210.005 198.501 211.844 201.067 213.722L216.612 225.121C216.963 225.42 217.379 225.632 217.826 225.74C218.696 225.96 219.605 225.968 220.479 225.764C222.287 225.415 234.631 224.152 242.619 223.354C242.801 223.354 242.993 223.32 243.171 223.299L244.218 223.197C244.385 223.197 244.567 223.162 244.713 223.152L245.656 223.061C246.116 223.015 246.532 222.97 246.915 222.938L247.962 222.837C248.887 222.746 249.435 222.69 249.481 222.69C251.384 222.636 253.281 222.451 255.159 222.137C256.956 221.787 258.597 221.224 259.022 220.29C259.103 220.093 259.133 219.879 259.11 219.668C259.013 219.074 258.766 218.515 258.391 218.045C256.75 215.838 252.939 213.945 252.66 213.809C252.652 213.806 252.644 213.806 252.636 213.809L252.559 213.753L229.874 196.089H229.849C229.849 196.089 233.266 159.558 264.4 168.547C264.4 168.547 264.547 168.649 264.816 168.873C266.03 169.81 269.852 172.916 275.471 178.719C275.617 178.876 275.774 179.034 275.931 179.202C276.528 179.81 277.114 180.443 277.697 181.062C281.641 185.288 286.307 190.671 291.455 197.383L291.49 197.418C297.388 205.113 301.639 212.165 304.403 218.405V218.426C307.394 225.208 308.654 231.018 308.406 235.653C308.414 235.735 308.416 235.818 308.413 235.901ZM214.507 173.112C213.586 162.468 218.755 158.613 219.044 158.4C211.694 171.727 225.326 192.154 225.804 192.944C225.414 192.616 215.429 183.752 214.507 173.112Z" fill="#353642"/>
<path d="M194.982 171.024C194.6 171.306 194.201 171.565 193.788 171.8L191.394 167.603C196.915 164.773 198.465 159.785 196.036 157.047C195.357 156.297 194.481 155.754 193.509 155.48C191.066 154.738 189.373 155.829 188.225 157.295C187.288 158.569 186.601 160.01 186.201 161.541L185.035 148.068L184.945 147.018C184.945 147.018 182.404 145.756 175.522 146.882C168.639 148.008 167.373 151.817 164.416 150.128C161.46 148.438 159.785 148.575 159.785 148.575C158.944 151.67 156.693 151.67 156.693 151.67C156.16 151.606 155.636 151.478 155.133 151.289C151.94 148.347 151.074 143.244 151.074 143.244C154.425 142.828 154.683 139.596 154.299 136.948C156.156 138.053 158.773 138.13 162.448 135.766C172.991 129.008 183.803 132.667 187.604 133.23C189.3 133.478 191.157 132.88 192.696 132.181C192.895 132.538 193.172 132.845 193.506 133.08C196.071 134.871 198.187 137.234 199.686 139.984C209.581 158.519 198.734 168.362 194.982 171.024Z" fill="#047857"/>
<path d="M155.488 253.337H159.466C161.168 253.335 162.799 252.657 164.002 251.451C165.206 250.245 165.882 248.61 165.884 246.905V242.441C165.884 242.035 165.804 241.632 165.649 241.256C165.493 240.88 165.266 240.539 164.978 240.251C164.691 239.964 164.35 239.736 163.975 239.58C163.6 239.425 163.198 239.345 162.792 239.346H138.997C138.998 240.296 138.812 241.237 138.45 242.115C138.087 242.992 137.556 243.79 136.885 244.462C136.215 245.133 135.419 245.666 134.543 246.028C133.667 246.391 132.728 246.577 131.78 246.576H45.7969C45.7978 248.369 46.5089 250.088 47.7738 251.356C49.0388 252.624 50.7541 253.336 52.543 253.337H169.109C169.261 253.338 169.412 253.308 169.553 253.25C169.694 253.191 169.822 253.106 169.929 252.998C170.037 252.89 170.122 252.762 170.18 252.621C170.239 252.48 170.268 252.328 170.268 252.176V244.932C170.268 243.525 170.826 242.175 171.818 241.18C172.811 240.185 174.158 239.626 175.562 239.626C176.966 239.626 178.313 240.185 179.306 241.18C180.299 242.175 180.856 243.525 180.856 244.932V252.176C180.856 252.328 180.885 252.479 180.943 252.62C181.001 252.761 181.086 252.889 181.194 252.997C181.301 253.105 181.428 253.19 181.569 253.249C181.709 253.307 181.86 253.337 182.012 253.337H323.524C323.524 253.337 319.203 191.569 279.494 161.526C241.066 132.453 205.087 146.465 202.805 147.402L202.693 147.444" stroke="black" stroke-width="1.449" stroke-miterlimit="10"/>
<path d="M163.013 162.52C163.011 162.909 162.895 163.288 162.679 163.61C162.463 163.932 162.156 164.183 161.798 164.331C161.439 164.479 161.045 164.517 160.666 164.441C160.286 164.364 159.937 164.177 159.663 163.902C159.389 163.627 159.203 163.277 159.127 162.896C159.052 162.515 159.091 162.121 159.239 161.762C159.387 161.403 159.638 161.096 159.96 160.88C160.282 160.664 160.66 160.548 161.048 160.547C161.199 160.548 161.351 160.567 161.498 160.603C161.295 160.668 161.117 160.795 160.992 160.968C160.866 161.14 160.799 161.348 160.8 161.562C160.799 161.696 160.824 161.829 160.875 161.953C160.925 162.077 161 162.19 161.094 162.285C161.188 162.38 161.3 162.456 161.423 162.508C161.546 162.559 161.678 162.586 161.812 162.587C162.056 162.582 162.291 162.491 162.476 162.331C162.661 162.171 162.784 161.951 162.824 161.709C162.944 161.963 163.009 162.239 163.013 162.52Z" fill="black"/>
<path d="M176.628 163.07C176.629 163.46 176.514 163.842 176.298 164.167C176.082 164.492 175.775 164.745 175.415 164.895C175.056 165.045 174.66 165.085 174.278 165.009C173.896 164.933 173.545 164.746 173.269 164.47C172.994 164.194 172.806 163.843 172.729 163.46C172.653 163.077 172.692 162.68 172.841 162.32C172.99 161.959 173.242 161.651 173.566 161.434C173.89 161.217 174.27 161.101 174.66 161.101C174.754 161.1 174.847 161.111 174.939 161.132C174.765 161.213 174.617 161.341 174.514 161.503C174.411 161.665 174.356 161.853 174.356 162.045C174.344 162.314 174.439 162.577 174.62 162.776C174.802 162.975 175.054 163.093 175.323 163.105C175.591 163.117 175.854 163.022 176.052 162.84C176.25 162.658 176.368 162.405 176.38 162.136C176.541 162.421 176.627 162.743 176.628 163.07Z" fill="black"/>
<path d="M192.329 129.41C192.102 130.942 192.385 132.285 193.509 133.083C196.074 134.874 198.19 137.238 199.689 139.988C211.493 162.09 193.788 171.818 193.788 171.818L191.394 167.62C198.286 164.095 198.991 157.19 193.509 155.497C188.026 153.804 186.2 161.559 186.2 161.559L184.944 147.025C184.944 147.025 182.403 145.762 175.521 146.889C168.639 148.015 167.372 151.824 164.416 150.135C161.46 148.445 159.785 148.582 159.785 148.582C158.944 151.677 156.693 151.677 156.693 151.677C150.096 150.834 148.547 141.687 148.547 141.687C151.894 141.268 152.152 138.036 151.772 135.391C153.625 136.497 156.246 136.577 159.921 134.209C170.464 127.451 181.276 131.114 185.073 131.677C187.698 132.058 190.71 130.449 192.329 129.41Z" stroke="black" stroke-width="1.449" stroke-linecap="round" stroke-linejoin="round"/>
<path d="M198.414 239.017L201.021 237.968L202.976 243.253L202.669 252.844L200.027 253.324L190 252.89C190 252.89 190.698 247.041 192.83 244.261C194.963 241.48 198.414 239.017 198.414 239.017Z" fill="#047857"/>
<path d="M152.766 154.909C152.766 154.909 155.435 150.107 161.054 150.607" stroke="black" stroke-width="1.449" stroke-miterlimit="10"/>
<path d="M172.055 150.606C172.055 150.606 178.476 149.161 180.724 152.74" stroke="black" stroke-width="1.449" stroke-miterlimit="10"/>
<path d="M182.008 172.349C182.008 172.349 178.169 170.121 175.359 173.867" stroke="black" stroke-width="1.449" stroke-miterlimit="10"/>
<path d="M157.751 151.377C157.751 151.377 155.018 183.595 175.397 183C178.887 182.899 182.356 180.601 185.671 176.904" stroke="black" stroke-width="1.449" stroke-miterlimit="10"/>
<path d="M193.789 179.834L185.668 176.903C185.668 176.903 187.682 183.353 197.656 183.846C207.631 184.339 210.977 161.397 203.648 152.166" stroke="black" stroke-width="1.449" stroke-linejoin="round"/>
<path d="M225.539 244.466C225.539 244.466 218.094 250.521 223.151 253.337" stroke="black" stroke-width="1.449" stroke-miterlimit="10"/>
<path d="M219.782 238.832C219.782 238.832 206.869 246.156 217.956 253.337" stroke="black" stroke-width="1.449" stroke-miterlimit="10"/>
<path d="M215.428 233.2C215.428 233.2 198.288 241.245 211.495 253.337" stroke="black" stroke-width="1.449" stroke-miterlimit="10"/>
<path d="M287.507 253.337C287.507 253.337 308.3 253.337 308.579 233.2C308.858 213.064 268.259 162.499 241.986 155.465C215.714 148.431 214.586 167.707 214.586 168.498C214.586 169.288 213.044 177.592 219.787 186.452C224.994 193.301 247.993 210.398 258.198 217.828C258.572 218.101 258.855 218.482 259.009 218.92C259.162 219.359 259.179 219.833 259.056 220.282C258.934 220.73 258.679 221.13 258.324 221.429C257.969 221.728 257.532 221.911 257.07 221.955L211.938 226.299H211.91C211.484 226.376 195.555 229.321 190.704 234.323C190.704 234.323 187.986 236.342 189.392 239.441C190.799 242.54 195.119 241.518 195.238 241.403" stroke="black" stroke-width="1.449" stroke-miterlimit="10"/>
<path opacity="0.26" d="M174.666 166.729C177.769 166.729 180.285 164.208 180.285 161.098C180.285 157.987 177.769 155.466 174.666 155.466C171.563 155.466 169.047 157.987 169.047 161.098C169.047 164.208 171.563 166.729 174.666 166.729Z" fill="white"/>
<path opacity="0.26" d="M160.404 166.172C163.507 166.172 166.023 163.65 166.023 160.54C166.023 157.43 163.507 154.909 160.404 154.909C157.301 154.909 154.785 157.43 154.785 160.54C154.785 163.65 157.301 166.172 160.404 166.172Z" fill="white"/>
<path d="M208.972 238.129C206.997 237.577 203.769 237.08 200.443 238.15C198.816 238.675 197.316 239.532 196.035 240.665C195.756 240.91 195.487 241.158 195.229 241.407C194.672 241.954 194.146 242.532 193.655 243.138C193.59 243.218 193.498 243.272 193.396 243.289C192.157 243.46 184.001 244.754 184.043 248.885C184.082 252.596 188.137 253.205 189.533 253.303C189.59 253.308 189.648 253.301 189.703 253.283C189.758 253.265 189.809 253.236 189.852 253.197C189.895 253.158 189.929 253.111 189.953 253.058C189.977 253.005 189.989 252.948 189.99 252.89C189.99 251.568 190.29 247.423 193.553 243.254" stroke="black" stroke-width="1.449" stroke-miterlimit="10"/>
<path d="M135.489 208.974C136.445 216.701 130.453 220.195 123.902 220.713" stroke="black" stroke-width="1.449" stroke-miterlimit="10"/>
<path d="M114.38 219.101C111.882 217.749 109.859 215.66 108.584 213.117C107.31 210.575 106.845 207.701 107.253 204.886C108.3 197.453 114.582 191.751 120.732 188.135C133.645 180.541 162.744 186.036 167.634 187.155C171.382 188.016 174.516 185.078 175.787 183.657C175.841 183.597 175.911 183.554 175.988 183.532C176.066 183.511 176.149 183.512 176.226 183.536C176.303 183.56 176.371 183.605 176.424 183.667C176.476 183.729 176.509 183.805 176.519 183.885C179.203 199.625 210.372 220.99 217.583 225.771" stroke="black" stroke-width="1.449" stroke-miterlimit="10"/>
<path d="M143.354 203.629L133.034 210.048C132.419 210.432 131.731 210.682 131.013 210.783C130.296 210.883 129.565 210.832 128.869 210.633C128.172 210.433 127.525 210.089 126.97 209.623C126.414 209.157 125.962 208.58 125.642 207.928C125.067 206.758 124.953 205.412 125.323 204.161C125.693 202.91 126.52 201.845 127.639 201.177L143.344 191.8" stroke="black" stroke-width="1.449" stroke-miterlimit="10"/>
<path d="M174.666 166.729C177.769 166.729 180.285 164.208 180.285 161.098C180.285 157.987 177.769 155.466 174.666 155.466C171.563 155.466 169.047 157.987 169.047 161.098C169.047 164.208 171.563 166.729 174.666 166.729Z" stroke="black" stroke-width="1.449" stroke-miterlimit="10"/>
<path d="M160.407 165.329C163.045 165.329 165.185 163.185 165.185 160.54C165.185 157.895 163.045 155.752 160.407 155.752C157.768 155.752 155.629 157.895 155.629 160.54C155.629 163.185 157.768 165.329 160.407 165.329Z" stroke="white" stroke-width="1.449" stroke-miterlimit="10"/>
<path d="M160.404 166.172C163.507 166.172 166.023 163.65 166.023 160.54C166.023 157.43 163.507 154.909 160.404 154.909C157.301 154.909 154.785 157.43 154.785 160.54C154.785 163.65 157.301 166.172 160.404 166.172Z" stroke="black" stroke-width="1.449" stroke-miterlimit="10"/>
<path d="M169.074 160.541H166.023" stroke="black" stroke-width="1.449" stroke-miterlimit="10"/>
<path d="M169.073 168.498H167.063C166.936 168.498 166.811 168.471 166.697 168.417C166.583 168.363 166.481 168.284 166.401 168.187C166.32 168.089 166.262 167.975 166.23 167.852C166.199 167.73 166.195 167.601 166.218 167.477L167.548 160.541" stroke="black" stroke-width="1.449" stroke-miterlimit="10"/>
<path d="M128.742 187.718C128.742 187.718 121.577 189.268 119.05 200.111C117.514 206.694 115.406 215.092 113.989 220.675C113.808 221.391 113.791 222.139 113.942 222.862C114.093 223.586 114.406 224.265 114.859 224.849C115.311 225.432 115.891 225.904 116.553 226.229C117.215 226.554 117.943 226.722 118.68 226.723C119.781 226.723 120.849 226.347 121.708 225.657C122.567 224.967 123.166 224.004 123.405 222.927L126.403 209.447" stroke="black" stroke-width="1.449" stroke-miterlimit="10"/>
<path d="M135.293 213.063C135.293 213.063 142.814 208.558 157.629 213.063C172.444 217.568 189.475 220.625 195.094 208.677" stroke="black" stroke-width="1.449" stroke-miterlimit="10"/>
<path d="M200.449 238.15C200.449 238.15 205.684 244.138 202.501 253.337" stroke="black" stroke-width="1.449" stroke-miterlimit="10"/>
<path d="M27.4574 163.686H110.17C112.834 163.683 115.422 164.578 117.517 166.227C119.612 167.877 121.092 170.185 121.719 172.78L134.887 227.437C135.242 228.912 135.259 230.448 134.936 231.931C134.613 233.413 133.958 234.803 133.022 235.995C132.086 237.187 130.892 238.15 129.53 238.813C128.168 239.475 126.674 239.82 125.16 239.82H42.6598C40.0008 239.822 37.4179 238.929 35.3257 237.285C33.2334 235.64 31.753 233.339 31.1219 230.75L17.7412 176.103C17.3799 174.627 17.3582 173.088 17.6777 171.602C17.9972 170.116 18.6496 168.722 19.5855 167.526C20.5214 166.33 21.7164 165.363 23.0802 164.697C24.4439 164.032 25.9407 163.686 27.4574 163.686Z" fill="#047857"/>
<path d="M30.4719 166.036H108.076C110.576 166.039 113.002 166.883 114.967 168.432C116.931 169.982 118.321 172.147 118.912 174.581L131.274 225.856C131.607 227.239 131.624 228.681 131.321 230.071C131.018 231.462 130.405 232.765 129.526 233.884C128.648 235.002 127.528 235.906 126.25 236.528C124.973 237.149 123.571 237.472 122.151 237.472H44.7356C42.2433 237.467 39.8245 236.626 37.864 235.084C35.9034 233.542 34.5139 231.387 33.9166 228.962L21.3526 177.684C21.0133 176.299 20.9929 174.854 21.2928 173.46C21.5927 172.065 22.2051 170.758 23.0837 169.635C23.9622 168.513 25.084 167.606 26.364 166.983C27.644 166.359 29.0487 166.035 30.4719 166.036Z" fill="#047857"/>
<path d="M27.4574 163.686H110.17C112.834 163.683 115.422 164.578 117.517 166.227C119.612 167.877 121.092 170.185 121.719 172.78L134.887 227.437C135.242 228.912 135.259 230.448 134.936 231.931C134.613 233.413 133.958 234.803 133.022 235.995C132.086 237.187 130.892 238.15 129.53 238.813C128.168 239.475 126.674 239.82 125.16 239.82H42.6598C40.0008 239.822 37.4179 238.929 35.3257 237.285C33.2334 235.64 31.753 233.339 31.1219 230.75L17.7412 176.103C17.3799 174.627 17.3582 173.088 17.6777 171.602C17.9972 170.116 18.6496 168.722 19.5855 167.526C20.5214 166.33 21.7164 165.363 23.0802 164.697C24.4439 164.032 25.9407 163.686 27.4574 163.686Z" stroke="black" stroke-width="1.449" stroke-miterlimit="10"/>
<path d="M66.1961 200.09L61.2647 177.05C61.1623 176.563 60.896 176.126 60.5103 175.812C60.1247 175.498 59.6431 175.326 59.1463 175.326H34.7442C34.416 175.327 34.0922 175.402 33.7975 175.547C33.5027 175.692 33.2447 175.902 33.0429 176.161C32.8412 176.421 32.701 176.723 32.6329 177.045C32.5649 177.367 32.5708 177.7 32.6502 178.019L38.3564 201.329C38.4272 201.654 38.5784 201.955 38.7961 202.207C38.9915 202.455 39.2406 202.657 39.5246 202.796C39.8087 202.934 40.1204 203.007 40.4364 203.008H40.4818L64.0986 202.728C64.4175 202.723 64.7314 202.648 65.0179 202.508C65.3045 202.367 65.5566 202.165 65.7564 201.916C65.9598 201.663 66.1047 201.368 66.1808 201.053C66.2568 200.737 66.262 200.408 66.1961 200.09ZM34.2801 177.606C34.2623 177.537 34.2607 177.465 34.2752 177.396C34.2897 177.326 34.3201 177.26 34.3638 177.204C34.4086 177.146 34.4662 177.098 34.5321 177.065C34.5981 177.033 34.6706 177.016 34.7442 177.015H59.1463C59.2563 177.015 59.363 177.052 59.4483 177.122C59.5336 177.191 59.5921 177.289 59.614 177.397L63.3692 194.945C50.8296 182.811 49.4092 196.732 49.4092 196.732C42.3315 193.039 40.2863 197.082 39.693 199.744L34.2801 177.606Z" fill="#D7E8F0"/>
<path d="M41.3274 185.97C42.6885 185.547 43.3342 183.738 42.7758 181.93C42.2174 180.121 40.6574 179.002 39.2858 179.425C37.9142 179.849 37.279 181.657 37.8409 183.462C38.4028 185.267 39.9698 186.393 41.3274 185.97Z" fill="#D7E8F0"/>
<path d="M47.3021 185.557H55.3082C56.3029 185.557 57.301 185.557 58.2956 185.557H58.4387C58.7188 185.564 58.9972 185.512 59.2554 185.403C59.4338 185.314 59.5854 185.18 59.6949 185.013C59.8043 184.846 59.8676 184.654 59.8782 184.454C59.8889 184.255 59.8465 184.057 59.7555 183.879C59.6644 183.702 59.528 183.552 59.3601 183.444C59.1721 183.359 59.0007 183.24 58.854 183.094C58.7569 182.941 58.6905 182.77 58.6586 182.591C58.4738 182.084 58.1166 181.66 57.65 181.391C57.3105 181.162 56.9285 181.004 56.5267 180.927C56.1249 180.849 55.7117 180.854 55.3117 180.94C54.917 181.04 54.5558 181.242 54.2647 181.527C54.0169 181.772 53.968 182.101 53.7761 182.374C53.6505 182.552 53.5702 182.496 53.3992 182.398C53.2282 182.3 53.1339 182.227 52.9943 182.157C52.7189 182.009 52.4331 181.882 52.1393 181.776C51.5407 181.554 50.9023 181.459 50.2652 181.499C49.1449 181.587 48.0281 182.255 47.6372 183.311C47.285 183.316 46.946 183.446 46.6811 183.679C46.4163 183.912 46.243 184.232 46.1923 184.581C46.1692 184.716 46.1779 184.854 46.2179 184.985C46.258 185.115 46.3281 185.235 46.4227 185.333C46.6772 185.516 46.9913 185.596 47.3021 185.557Z" fill="#D7E8F0"/>
<path d="M104.7 185.059L104.058 182.412C103.628 180.632 102.612 179.048 101.175 177.917C99.7385 176.785 97.9636 176.17 96.136 176.172H87.3168C86.3106 176.17 85.3177 176.402 84.4154 176.848C83.513 177.295 82.7256 177.944 82.1144 178.745C81.5032 179.546 81.0847 180.477 80.8914 181.467C80.698 182.457 80.7352 183.478 80.9999 184.451L81.7293 187.141C82.1952 188.871 83.2174 190.4 84.6376 191.489C86.0578 192.579 87.7968 193.169 89.5853 193.167H98.3522C99.3424 193.167 100.32 192.94 101.21 192.506C102.1 192.071 102.88 191.44 103.492 190.659C104.103 189.878 104.529 188.969 104.739 187.999C104.948 187.029 104.935 186.024 104.7 185.059ZM95.0018 185.714L91.9899 187.571C91.8739 187.645 91.7423 187.691 91.6056 187.705C91.4689 187.719 91.3307 187.702 91.2019 187.654C91.0731 187.606 90.9571 187.528 90.8631 187.428C90.7692 187.327 90.6997 187.206 90.6602 187.074L89.526 183.36C89.4784 183.195 89.4784 183.02 89.5262 182.855C89.574 182.69 89.6675 182.542 89.7959 182.429C89.9242 182.315 90.0821 182.24 90.2512 182.213C90.4203 182.186 90.5936 182.207 90.751 182.275L94.9285 184.126C95.0779 184.193 95.2059 184.3 95.2986 184.435C95.3913 184.571 95.4451 184.729 95.4541 184.893C95.4631 185.057 95.427 185.22 95.3497 185.365C95.2724 185.51 95.1568 185.63 95.0157 185.714H95.0018Z" fill="white"/>
<path d="M102.73 208.845H87.3011C86.5948 208.843 85.904 208.636 85.3129 208.249C84.7218 207.861 84.2558 207.31 83.9716 206.662C83.8836 206.462 83.8362 206.247 83.832 206.029C83.8357 205.607 84.0053 205.204 84.3039 204.906C84.6025 204.609 85.006 204.442 85.427 204.441H101.83C101.059 205.749 101.45 207.557 102.73 208.845Z" fill="#D7E8F0"/>
<path d="M112.728 207.257C112.727 207.678 112.56 208.081 112.263 208.379C111.966 208.676 111.563 208.844 111.143 208.845H102.732C101.452 207.557 101.061 205.749 101.832 204.441H109.238C109.943 204.441 110.633 204.647 111.224 205.032C111.815 205.418 112.282 205.967 112.567 206.613C112.664 206.814 112.718 207.033 112.728 207.257Z" fill="#047857"/>
<path d="M108.85 208.845C108.807 208.929 108.757 209.01 108.7 209.086C107.597 210.594 105.21 210.734 103.357 209.377C103.136 209.216 102.927 209.038 102.732 208.845C101.452 207.558 101.061 205.75 101.832 204.441C101.875 204.358 101.925 204.278 101.982 204.203C103.074 202.685 105.472 202.553 107.315 203.899C107.538 204.064 107.749 204.245 107.946 204.441C109.238 205.729 109.611 207.537 108.85 208.845Z" fill="white"/>
<path d="M116.589 216.981C116.586 217.403 116.416 217.807 116.118 218.104C115.819 218.401 115.415 218.569 114.994 218.569H53.8427C54.6244 217.254 54.2335 215.453 52.9492 214.169H113.12C113.826 214.169 114.517 214.375 115.107 214.762C115.698 215.149 116.163 215.7 116.446 216.348C116.537 216.547 116.585 216.763 116.589 216.981Z" fill="#047857"/>
<path d="M53.8455 218.552H46.2269C45.5216 218.552 44.8315 218.347 44.2404 217.961C43.6493 217.576 43.1828 217.026 42.8974 216.38C42.8077 216.177 42.7602 215.958 42.7578 215.736C42.7574 215.528 42.798 215.321 42.8776 215.128C42.9571 214.936 43.0738 214.761 43.2211 214.613C43.3683 214.466 43.5432 214.35 43.7356 214.27C43.9281 214.191 44.1342 214.151 44.3423 214.152H52.9521C54.2364 215.435 54.6273 217.237 53.8455 218.552Z" fill="#D7E8F0"/>
<path d="M53.8405 218.552C53.8046 218.638 53.7577 218.719 53.7009 218.793C52.6085 220.311 50.2109 220.441 48.3647 219.094C48.1423 218.929 47.9323 218.748 47.7365 218.552C46.4626 217.265 46.0717 215.467 46.8326 214.151C46.8749 214.066 46.9252 213.986 46.9826 213.91C48.0855 212.403 50.4726 212.263 52.3258 213.616C52.547 213.778 52.7547 213.957 52.947 214.151C54.2314 215.435 54.6222 217.237 53.8405 218.552Z" fill="white"/>
<path d="M59.2416 228.175H49.5603C48.8552 228.174 48.1655 227.968 47.5746 227.583C46.9837 227.197 46.5169 226.648 46.2309 226.002C46.1349 225.807 46.0802 225.594 46.0703 225.376C46.0712 224.954 46.2392 224.548 46.5375 224.25C46.8357 223.951 47.24 223.782 47.6618 223.781H58.3307C57.5873 225.104 57.9677 226.901 59.2416 228.175Z" fill="#047857"/>
<path d="M119.911 226.611C119.905 227.031 119.734 227.431 119.434 227.724C119.134 228.017 118.731 228.179 118.312 228.175H59.2404C57.9665 226.888 57.5756 225.09 58.3365 223.775H116.441C117.147 223.774 117.838 223.98 118.428 224.367C119.019 224.754 119.484 225.306 119.767 225.954C119.86 226.161 119.908 226.385 119.911 226.611Z" fill="#D7E8F0"/>
<path d="M65.3549 228.175C65.3125 228.26 65.2622 228.341 65.2048 228.416C64.1124 229.934 61.7148 230.064 59.8721 228.717C59.6486 228.552 59.4375 228.371 59.2404 228.175C57.9665 226.888 57.5756 225.09 58.3365 223.774C58.3801 223.69 58.4303 223.61 58.4865 223.533C59.5894 222.026 61.9765 221.893 63.8297 223.239C64.0516 223.4 64.2594 223.579 64.4509 223.774C65.7353 225.072 66.1261 226.881 65.3549 228.175Z" fill="white"/>
<g opacity="0.21">
<path d="M67.0426 200.934L62.1217 177.894C62.0198 177.407 61.7535 176.969 61.3676 176.656C60.9818 176.343 60.4999 176.172 60.0032 176.173H35.5977C35.2672 176.173 34.9412 176.249 34.6447 176.395C34.3482 176.541 34.0891 176.753 33.8876 177.016C33.6877 177.273 33.5491 177.572 33.4826 177.891C33.416 178.21 33.4232 178.54 33.5037 178.856L39.2098 202.169C39.2795 202.493 39.4295 202.795 39.6461 203.047C39.8422 203.295 40.0919 203.496 40.3766 203.634C40.6613 203.773 40.9736 203.844 41.2899 203.844H41.3457L64.959 203.561C65.2772 203.557 65.5906 203.482 65.8766 203.343C66.1627 203.203 66.4142 203.002 66.6133 202.753C66.8139 202.5 66.9564 202.206 67.0306 201.891C67.1048 201.577 67.1089 201.25 67.0426 200.934ZM35.123 178.453C35.1053 178.384 35.1039 178.312 35.119 178.242C35.1342 178.172 35.1654 178.107 35.2103 178.051C35.254 177.992 35.3108 177.945 35.3763 177.912C35.4418 177.879 35.514 177.862 35.5872 177.862H59.9893C60.0992 177.861 60.206 177.898 60.2918 177.967C60.3776 178.036 60.4372 178.132 60.4604 178.24L64.2157 195.789C51.6726 183.651 50.2557 197.576 50.2557 197.576C43.1814 193.882 41.1328 197.926 40.543 200.588L35.123 178.453Z" fill="#D7E8F0"/>
<path d="M42.1727 186.814C43.5304 186.391 44.1795 184.582 43.6176 182.777C43.0557 180.972 41.5027 179.846 40.1276 180.269C38.7525 180.693 38.1209 182.501 38.6793 184.309C39.2377 186.118 40.8326 187.251 42.1727 186.814Z" fill="#D7E8F0"/>
<path d="M48.1632 186.405H56.1657C57.1639 186.405 58.1585 186.405 59.1567 186.405H59.2963C59.5763 186.413 59.8548 186.361 60.1129 186.251C60.2922 186.163 60.4447 186.029 60.5549 185.862C60.665 185.696 60.7287 185.502 60.7394 185.303C60.7501 185.103 60.7073 184.904 60.6156 184.726C60.5239 184.549 60.3865 184.399 60.2176 184.292C60.0313 184.204 59.8604 184.086 59.7116 183.943C59.6174 183.786 59.5512 183.615 59.5161 183.436C59.3312 182.931 58.9755 182.508 58.511 182.239C58.1713 182.01 57.7886 181.851 57.3862 181.774C56.9837 181.696 56.5697 181.701 56.1692 181.788C55.781 181.889 55.4267 182.092 55.1432 182.376C54.8919 182.621 54.8465 182.946 54.6546 183.222C54.5289 183.401 54.4486 183.345 54.2776 183.243C54.1066 183.142 54.0124 183.075 53.8728 183.002C53.5973 182.855 53.3115 182.729 53.0177 182.624C52.4193 182.401 51.781 182.306 51.1436 182.344C50.0233 182.432 48.9065 183.103 48.5122 184.156C48.16 184.162 47.8215 184.293 47.5573 184.526C47.2931 184.76 47.1206 185.08 47.0708 185.429C47.0483 185.564 47.057 185.701 47.0964 185.832C47.1357 185.962 47.2046 186.082 47.2976 186.181C47.5497 186.358 47.8571 186.438 48.1632 186.405Z" fill="#D7E8F0"/>
<path d="M105.555 185.904L104.913 183.259C104.482 181.479 103.466 179.895 102.028 178.763C100.591 177.63 98.8153 177.015 96.987 177.016H88.1538C87.1487 177.015 86.157 177.247 85.2557 177.692C84.3544 178.138 83.5677 178.786 82.9567 179.586C82.3457 180.386 81.9268 181.316 81.7326 182.304C81.5384 183.293 81.5741 184.312 81.8369 185.285L82.5663 187.978C83.0329 189.709 84.0558 191.237 85.4766 192.327C86.8974 193.416 88.6368 194.006 90.4258 194.005H99.1927C100.183 194.005 101.161 193.78 102.052 193.347C102.943 192.913 103.724 192.283 104.337 191.503C104.949 190.723 105.377 189.814 105.588 188.844C105.799 187.874 105.788 186.869 105.555 185.904ZM95.8527 186.551L92.8304 188.419C92.7146 188.493 92.5833 188.539 92.4468 188.553C92.3103 188.567 92.1724 188.55 92.0438 188.502C91.9152 188.454 91.7995 188.376 91.7059 188.276C91.6123 188.175 91.5432 188.054 91.5042 187.922L90.3874 184.204C90.3407 184.039 90.3414 183.865 90.3896 183.7C90.4377 183.536 90.5313 183.389 90.6595 183.276C90.7877 183.163 90.9453 183.088 91.1139 183.061C91.2825 183.034 91.4554 183.056 91.6124 183.123L95.7585 184.97C95.9056 185.038 96.0316 185.145 96.1229 185.279C96.2143 185.413 96.2676 185.57 96.2773 185.732C96.2869 185.894 96.2526 186.056 96.1778 186.2C96.1031 186.344 95.9907 186.466 95.8527 186.551Z" fill="#D7E8F0"/>
<path d="M103.577 209.69H88.1481C87.4422 209.689 86.7519 209.482 86.161 209.095C85.57 208.708 85.1037 208.158 84.8186 207.511C84.7099 207.269 84.6638 207.004 84.6845 206.74C84.7053 206.476 84.7923 206.221 84.9374 205.999C85.0826 205.778 85.2812 205.597 85.5148 205.473C85.7485 205.349 86.0096 205.286 86.274 205.29H102.677C101.909 206.594 102.293 208.406 103.577 209.69Z" fill="#D7E8F0"/>
<path d="M113.55 208.102C113.55 208.522 113.384 208.926 113.087 209.223C112.791 209.521 112.389 209.689 111.969 209.69H103.576C102.291 208.406 101.9 206.594 102.672 205.289H110.081C110.786 205.289 111.477 205.494 112.068 205.88C112.659 206.265 113.125 206.815 113.41 207.462C113.5 207.663 113.547 207.881 113.55 208.102Z" fill="#047857"/>
<path d="M109.69 209.689C109.649 209.775 109.599 209.855 109.54 209.93C108.437 211.438 106.05 211.578 104.197 210.224C103.976 210.062 103.769 209.883 103.576 209.689C102.291 208.405 101.9 206.593 102.672 205.289C102.715 205.204 102.767 205.123 102.825 205.047C103.918 203.529 106.315 203.4 108.158 204.746C108.382 204.911 108.593 205.093 108.79 205.289C110.064 206.576 110.454 208.374 109.69 209.689Z" fill="white"/>
<path d="M117.434 217.812C117.43 218.233 117.26 218.636 116.961 218.933C116.663 219.23 116.259 219.396 115.839 219.396H54.6903C55.4721 218.081 55.0812 216.283 53.7969 214.996H113.964C114.671 214.996 115.362 215.202 115.954 215.59C116.545 215.978 117.011 216.53 117.294 217.179C117.384 217.378 117.431 217.593 117.434 217.812Z" fill="#047857"/>
<path d="M54.6889 219.396H47.0667C46.362 219.396 45.6726 219.191 45.0817 218.806C44.4908 218.421 44.0239 217.873 43.7373 217.228C43.6495 217.024 43.6021 216.806 43.5977 216.584C43.5977 216.163 43.7646 215.759 44.0617 215.461C44.3589 215.163 44.7619 214.996 45.1821 214.996H53.7954C55.0798 216.283 55.4706 218.081 54.6889 219.396Z" fill="#D7E8F0"/>
<path d="M54.6867 219.396C54.6509 219.482 54.6027 219.564 54.5436 219.637C53.4513 221.155 51.0536 221.288 49.2109 219.941C48.9873 219.775 48.7761 219.593 48.5792 219.396C47.3054 218.112 46.9145 216.31 47.6788 214.995C47.7199 214.91 47.7702 214.829 47.8289 214.754C48.9317 213.246 51.3189 213.106 53.1721 214.464C53.3917 214.626 53.5993 214.803 53.7933 214.995C55.0776 216.282 55.4685 218.08 54.6867 219.396Z" fill="white"/>
<path d="M60.0783 229.033H50.3831C49.6786 229.032 48.9895 228.826 48.3988 228.441C47.8081 228.057 47.341 227.509 47.0537 226.864C46.966 226.665 46.9186 226.449 46.9141 226.231C46.9159 225.808 47.0845 225.402 47.3832 225.103C47.6819 224.804 48.0866 224.635 48.509 224.633H59.1779C58.4136 225.948 58.8045 227.749 60.0783 229.033Z" fill="#047857"/>
<path d="M120.753 227.454C120.752 227.662 120.711 227.868 120.631 228.06C120.551 228.251 120.434 228.426 120.287 228.572C120.14 228.719 119.965 228.835 119.773 228.913C119.581 228.992 119.376 229.032 119.168 229.031H60.0792C58.8054 227.748 58.4145 225.946 59.1788 224.631H117.28C117.987 224.631 118.678 224.838 119.27 225.225C119.861 225.613 120.327 226.165 120.61 226.814C120.7 227.015 120.749 227.233 120.753 227.454Z" fill="#D7E8F0"/>
<path d="M66.1972 229.032C66.1536 229.117 66.1022 229.198 66.0436 229.274C64.9513 230.792 62.5536 230.925 60.7109 229.578C60.4873 229.412 60.2761 229.229 60.0792 229.032C58.8054 227.748 58.4145 225.947 59.1788 224.632C59.2199 224.546 59.2702 224.465 59.3289 224.391C60.4317 222.883 62.8189 222.754 64.6721 224.1C64.8917 224.262 65.0993 224.44 65.2933 224.632C66.5776 225.919 66.9685 227.728 66.1972 229.032Z" fill="white"/>
</g>
</svg>
